<?xml version="1.0" encoding="UTF-8" standalone="no"?><!DOCTYPE svg PUBLIC "-//W3C//DTD SVG 1.1//EN" "http://www.w3.org/Graphics/SVG/1.1/DTD/svg11.dtd"><svg width="100%" height="100%" viewBox="0 0 210 33" version="1.1" xmlns="http://www.w3.org/2000/svg" xmlns:xlink="http://www.w3.org/1999/xlink" xml:space="preserve" xmlns:serif="http://www.serif.com/" style="fill-rule:evenodd;clip-rule:evenodd;stroke-linejoin:round;stroke-miterlimit:2;"><rect id="Artboard1" x="0" y="0" width="209.193" height="32.625" style="fill:none;"/><g id="Artboard11" serif:id="Artboard1"><path d="M116.208,5.331c-0.846,0.041 -1.675,0.141 -2.483,0.391c-2.367,0.725 -3.717,2.35 -3.767,4.813c-0.071,3.429 -0.033,6.862 -0.017,10.279c0.004,1.283 0.434,2.408 1.404,3.279c0.767,0.842 1.725,1.363 2.834,1.579c1.271,0.242 2.558,0.375 3.85,0.384c0.933,0.004 1.862,0.004 2.791,0.004c1.917,-0.004 3.83,-0.009 5.742,0.041c1.746,0.055 3.483,0.105 5.217,-0.17c3.266,-0.521 4.887,-2.325 4.908,-5.65c0.017,-2.896 -0.217,-5.809 -0.108,-8.705c0.141,-3.675 -1.842,-5.87 -5.65,-6.22c-0.575,-0.055 -1.154,-0.109 -1.729,-0.125c-1.921,-0.038 -3.838,-0.067 -5.759,-0.067c-2.412,-0 -4.821,0.046 -7.233,0.167Zm0.275,13.516c0.046,-2.125 0.042,-4.258 0.008,-6.387c-0.021,-0.959 0.271,-1.421 1.304,-1.413c3.68,0.029 7.355,0.017 11.034,0c0.858,-0.004 1.304,0.267 1.283,1.229c-0.042,2.196 0.004,4.384 0.004,6.58c0,0.379 0.071,0.783 -0.354,1.133c-0.229,0.042 -0.546,0.146 -0.862,0.146c-1.663,0.008 -3.33,0.004 -4.988,0.004c-2.083,-0 -4.162,-0 -6.237,0.008l-0.013,0c-0.921,0 -1.204,-0.4 -1.179,-1.3Z" style="fill:url(#_Linear1);fill-rule:nonzero;"/><path d="M154.641,5.247c-0.321,0.009 -0.641,0.071 -0.958,0.138c-2.746,0.55 -4.688,2.537 -4.833,5.333c-0.175,3.229 -0.15,6.483 0.187,9.696c0.275,2.642 1.875,4.35 4.463,5.012c0.866,0.225 1.787,0.346 2.683,0.409c3.758,0.275 7.504,0.083 11.254,-0.192c0.508,-0.037 1.029,-0.146 1.517,-0.292c2.221,-0.67 3.562,-2.387 3.671,-4.7c0.05,-1.041 0.087,-2.079 0.025,-3.104c-0.205,-3.221 -2.213,-5.1 -5.442,-5.075c-3.046,0.021 -6.088,0.121 -9.133,0.163c-0.825,0.008 -1.675,0.179 -2.68,-0.163c0.409,-1.491 1.45,-1.683 2.596,-1.704c4.142,-0.062 8.288,-0.117 12.429,-0.196c0.117,0 0.242,0.004 0.367,0.009c0.454,0.016 0.933,0.029 1.433,-0.288c-0.145,-1.729 0.125,-3.525 -0.229,-5.404c-5.837,0.125 -11.591,0.242 -17.35,0.358Zm2.421,15.271c-1.05,0 -1.537,-0.462 -1.575,-1.292c-0.033,-0.845 0.421,-1.383 1.454,-1.42c2.7,-0.075 5.4,-0.084 8.1,-0.096c0.604,-0 1.146,0.171 1.379,0.833c0.18,0.533 0.138,1.013 -0.229,1.442c-0.321,0.383 -0.758,0.45 -1.221,0.454c-2.541,0.029 -5.091,0.079 -7.637,0.079l-0.271,0Z" style="fill:url(#_Linear2);fill-rule:nonzero;"/><path d="M183.383,5.031c-0.892,0.008 -1.054,0.404 -1.042,1.187c0.071,3.171 0.071,6.338 0.109,9.504c0.02,1.525 0.037,1.525 1.662,1.504c3.879,-0.05 7.763,-0.104 11.642,-0.15c0.579,-0.008 1.171,-0.045 1.737,0.03c0.95,0.137 1.65,0.833 1.709,1.604c0.058,0.787 -0.509,1.458 -1.584,1.65c-0.758,0.141 -1.546,0.137 -2.316,0.15c-4.392,0.054 -8.78,0.1 -13.33,0.15c-0.004,1.325 0.063,2.541 -0.029,3.758c-0.087,1.075 0.334,1.292 1.338,1.267c4.658,-0.113 9.316,-0.121 13.971,-0.225c1.22,-0.025 2.454,-0.175 3.658,-0.388c3.333,-0.608 4.642,-2.125 4.871,-5.525c0.362,-5.371 -1.621,-7.471 -7.059,-7.446c-2.845,0.013 -5.691,0.042 -8.537,0.067c-0.388,0.004 -0.775,0.004 -1.167,-0.004c-0.487,-0.013 -0.65,-0.3 -0.671,-0.754c-0.016,-0.467 0.15,-0.742 0.646,-0.754c0.454,-0.005 0.904,-0.013 1.359,-0.021c4.458,-0.059 8.925,-0.138 13.383,-0.159c0.887,-0.004 1.312,-0.187 1.25,-1.187c-0.096,-1.417 -0.063,-2.842 -0.083,-4.496c-7.296,0.083 -14.405,0.183 -21.517,0.238Z" style="fill:url(#_Linear3);fill-rule:nonzero;"/><path d="M3.254,5.647c0.008,6.671 0.016,13.392 0.029,19.821c2.392,0.133 4.696,0.267 7.229,0.408c0.104,-3.441 0.204,-6.762 0.304,-10.079c0.459,0.059 0.784,0.5 1.154,0.838c3.13,2.816 6.246,5.637 9.375,8.454c0.38,0.342 0.688,0.817 1.271,0.821c2.484,0.016 4.971,0.021 7.796,0.029c-2.479,-2.617 -5.229,-4.325 -7.304,-6.696c0.142,-0.2 0.167,-0.279 0.221,-0.304c0.233,-0.1 0.462,-0.217 0.712,-0.283c2.138,-0.546 3.25,-1.988 3.592,-4.105c0.271,-1.675 0.279,-3.35 -0.058,-5.025c-0.417,-2.062 -1.675,-3.291 -3.709,-3.758c-1.204,-0.283 -2.429,-0.358 -3.658,-0.358c-5.054,-0.004 -10.108,-0.009 -15.158,0.008c-0.267,0 -0.542,-0.042 -0.821,-0.042c-0.317,0 -0.638,0.05 -0.975,0.271Zm7.141,7.634c-0.108,-1.917 -0.104,-1.967 1.75,-1.971c2.45,-0 4.896,-0.009 7.342,0.016c0.746,0.013 1.425,0.23 1.654,1.063c0.142,0.529 0.025,1.021 -0.366,1.442c-0.475,0.358 -1.034,0.483 -1.625,0.483c-2.575,-0 -5.155,-0.029 -7.734,-0.004l-0.012,-0c-0.738,-0 -0.967,-0.3 -1.009,-1.029Z" style="fill:url(#_Linear4);fill-rule:nonzero;"/><path d="M101.987,5.356c-1.446,0.054 -2.9,0.037 -4.35,0.029c-0.687,-0.004 -1.371,-0.013 -2.058,-0.013c-1.059,0.004 -2.113,0 -3.163,-0.004c-2.512,-0.012 -5.016,-0.021 -7.512,0.071c-4.042,0.154 -5.838,2.137 -5.854,6.175c-0.017,2.717 -0.038,5.446 0.016,8.154c0.075,4.05 1.867,5.867 5.929,6.133c0.325,0.017 0.65,0.03 0.967,0.03c3.692,-0 7.388,0.004 11.071,-0.009c2,0 4,-0.037 6.037,-0.054c0.196,-1.925 0.109,-3.733 0.084,-5.587c-1.242,-0.2 -2.463,-0.18 -3.675,-0.155c-0.467,0.009 -0.934,0.013 -1.4,0.009c-1.892,-0.013 -3.788,-0.013 -5.675,-0.009c-1.8,0.005 -3.596,0.005 -5.392,-0.012c-1.558,-0.017 -1.654,-0.142 -1.679,-1.667c-0.017,-1.487 -0.021,-2.971 -0,-4.466c0.037,-2.838 -0.221,-2.734 2.775,-2.734c4.6,0 9.196,-0.033 13.792,0c0.879,0.004 1.329,-0.187 1.279,-1.171c-0.059,-1.162 -0.05,-2.329 0.004,-3.495c0.046,-0.859 -0.188,-1.23 -1.075,-1.23c-0.038,0 -0.079,0 -0.121,0.005Z" style="fill:url(#_Linear5);fill-rule:nonzero;"/><path d="M54.154,5.443c-4.217,0.154 -5.934,2.071 -5.963,6.25c-0.016,2.396 0.088,4.796 -0.016,7.179c-0.246,5.329 2.379,7.084 6.983,7.063c5.237,-0.025 10.479,0.004 15.721,0.004c0.437,-0 0.9,0.075 1.371,-0.25c0.025,-1.5 0.012,-3.054 0.075,-4.592c0.029,-0.787 -0.305,-1 -1.034,-0.983c-1.216,0.025 -2.429,0.025 -3.641,0.021l-1.4,-0c-3.367,0.004 -6.734,0.029 -10.096,-0c-1.417,-0.013 -1.675,-0.196 -1.692,-1.284c-0.037,-2.133 0.033,-4.266 0.025,-6.404c-0.004,-0.825 0.392,-1.175 1.167,-1.2c0.387,-0.004 0.775,0 1.166,0c4.784,-0.004 9.575,-0.029 14.359,0c0.808,0.004 1.183,-0.187 1.146,-1.066c-0.059,-1.542 -0.034,-3.088 -0.042,-4.713c-1.858,-0.029 -3.592,-0.075 -5.325,-0.075c-2.429,0 -4.858,-0.033 -7.288,-0.033c-1.837,-0 -3.679,0.021 -5.516,0.083Z" style="fill:url(#_Linear6);fill-rule:nonzero;"/><path d="M34.27,6.56c0.034,2.258 0.017,4.529 0.017,6.791c0.008,4.138 0.021,8.271 0.033,12.488c2.405,0.179 4.705,0.087 7.13,0.029c-0.009,-6.829 -0.013,-13.546 -0.021,-20.262c-2.209,-0.075 -4.146,-0.121 -6.079,-0.213c-0.038,-0.004 -0.071,-0.004 -0.109,-0.004c-0.783,-0 -0.983,0.404 -0.971,1.171Z" style="fill:url(#_Linear7);fill-rule:nonzero;"/></g><defs><linearGradient id="_Linear1" x1="0" y1="0" x2="1" y2="0" gradientUnits="userSpaceOnUse" gradientTransform="matrix(26.7712,0,0,26.7712,109.915,15.718)"><stop offset="0" style="stop-color:#17459d;stop-opacity:1"/><stop offset="1" style="stop-color:#1a4697;stop-opacity:1"/></linearGradient><linearGradient id="_Linear2" x1="0" y1="0" x2="1" y2="0" gradientUnits="userSpaceOnUse" gradientTransform="matrix(23.9391,0,0,23.9391,148.743,15.57)"><stop offset="0" style="stop-color:#17459d;stop-opacity:1"/><stop offset="1" style="stop-color:#1a4697;stop-opacity:1"/></linearGradient><linearGradient id="_Linear3" x1="0" y1="0" x2="1" y2="0" gradientUnits="userSpaceOnUse" gradientTransform="matrix(23.8876,0,0,23.8876,181.931,15.2652)"><stop offset="0" style="stop-color:#17459d;stop-opacity:1"/><stop offset="1" style="stop-color:#1a4697;stop-opacity:1"/></linearGradient><linearGradient id="_Linear4" x1="0" y1="0" x2="1" y2="0" gradientUnits="userSpaceOnUse" gradientTransform="matrix(27.1586,0,0,27.1586,3.25283,15.6587)"><stop offset="0" style="stop-color:#17459d;stop-opacity:1"/><stop offset="1" style="stop-color:#1a4697;stop-opacity:1"/></linearGradient><linearGradient id="_Linear5" x1="0" y1="0" x2="1" y2="0" gradientUnits="userSpaceOnUse" gradientTransform="matrix(24.1623,0,0,24.1623,79.0334,15.6413)"><stop offset="0" style="stop-color:#17459d;stop-opacity:1"/><stop offset="1" style="stop-color:#1a4697;stop-opacity:1"/></linearGradient><linearGradient id="_Linear6" x1="0" y1="0" x2="1" y2="0" gradientUnits="userSpaceOnUse" gradientTransform="matrix(24.1694,0,0,24.1694,48.1583,15.7216)"><stop offset="0" style="stop-color:#17459d;stop-opacity:1"/><stop offset="1" style="stop-color:#1a4697;stop-opacity:1"/></linearGradient><linearGradient id="_Linear7" x1="0" y1="0" x2="1" y2="0" gradientUnits="userSpaceOnUse" gradientTransform="matrix(7.17825,0,0,7.17825,34.2691,15.7412)"><stop offset="0" style="stop-color:#17459d;stop-opacity:1"/><stop offset="1" style="stop-color:#1a4697;stop-opacity:1"/></linearGradient></defs></svg>