<?xml version="1.0" encoding="UTF-8" standalone="no"?>
<!DOCTYPE svg PUBLIC "-//W3C//DTD SVG 1.1//EN" "http://www.w3.org/Graphics/SVG/1.1/DTD/svg11.dtd">
<svg width="100%" height="100%" viewBox="0 0 210 33" version="1.1" xmlns="http://www.w3.org/2000/svg" xmlns:xlink="http://www.w3.org/1999/xlink" xml:space="preserve" xmlns:serif="http://www.serif.com/" style="fill-rule:evenodd;clip-rule:evenodd;stroke-linejoin:round;stroke-miterlimit:2;">
    <g transform="matrix(0.418385,0,0,10.875,0,0)">
        <rect id="Artboard1" x="0" y="0" width="500" height="3" style="fill:none;"/>
        <g id="Artboard11" serif:id="Artboard1">
            <g transform="matrix(63.987,0,0,-2.46173,262.712,1.44517)">
                <path d="M0.235,0.388C0.203,0.386 0.172,0.383 0.142,0.373C0.054,0.346 0.003,0.286 0.002,0.194C-0.001,0.065 0,-0.063 0.001,-0.19C0.001,-0.238 0.017,-0.28 0.053,-0.313C0.082,-0.344 0.118,-0.364 0.159,-0.372C0.207,-0.381 0.255,-0.386 0.303,-0.386C0.338,-0.386 0.373,-0.386 0.407,-0.386C0.479,-0.386 0.55,-0.386 0.622,-0.388C0.687,-0.39 0.752,-0.392 0.817,-0.382C0.939,-0.362 0.999,-0.295 1,-0.17C1.001,-0.062 0.992,0.046 0.996,0.155C1.001,0.292 0.927,0.374 0.785,0.387C0.763,0.389 0.742,0.391 0.72,0.392C0.649,0.393 0.577,0.394 0.505,0.394C0.415,0.394 0.325,0.392 0.235,0.388ZM0.245,-0.117C0.247,-0.038 0.247,0.042 0.246,0.122C0.245,0.157 0.256,0.175 0.294,0.174C0.432,0.173 0.569,0.174 0.706,0.174C0.739,0.175 0.755,0.164 0.754,0.128C0.753,0.046 0.755,-0.035 0.755,-0.117C0.755,-0.131 0.757,-0.147 0.741,-0.16C0.733,-0.161 0.721,-0.165 0.709,-0.165C0.647,-0.165 0.585,-0.165 0.523,-0.165C0.445,-0.165 0.367,-0.165 0.29,-0.166L0.289,-0.166C0.255,-0.166 0.244,-0.151 0.245,-0.117Z" style="fill:white;fill-rule:nonzero;"/>
            </g>
            <g transform="matrix(57.2178,0,0,-2.2013,355.516,1.43158)">
                <path d="M0.246,0.431C0.233,0.431 0.22,0.428 0.206,0.425C0.092,0.402 0.011,0.319 0.004,0.203C-0.003,0.068 -0.002,-0.068 0.012,-0.202C0.024,-0.313 0.091,-0.384 0.199,-0.412C0.235,-0.421 0.273,-0.426 0.311,-0.429C0.468,-0.44 0.624,-0.432 0.781,-0.421C0.802,-0.419 0.824,-0.415 0.844,-0.409C0.937,-0.381 0.993,-0.309 0.998,-0.212C1,-0.169 1.001,-0.125 0.999,-0.083C0.99,0.052 0.906,0.13 0.771,0.129C0.644,0.128 0.517,0.124 0.39,0.123C0.355,0.122 0.32,0.115 0.278,0.129C0.295,0.192 0.338,0.2 0.386,0.201C0.559,0.203 0.733,0.205 0.906,0.209C0.91,0.209 0.916,0.209 0.921,0.208C0.94,0.208 0.96,0.207 0.981,0.22C0.975,0.293 0.986,0.368 0.971,0.446C0.727,0.441 0.487,0.436 0.246,0.431ZM0.348,-0.207C0.304,-0.207 0.283,-0.187 0.282,-0.153C0.28,-0.117 0.299,-0.095 0.342,-0.093C0.455,-0.09 0.568,-0.09 0.681,-0.089C0.706,-0.089 0.729,-0.097 0.738,-0.124C0.746,-0.147 0.744,-0.167 0.729,-0.184C0.715,-0.2 0.697,-0.203 0.678,-0.203C0.572,-0.205 0.465,-0.207 0.359,-0.207L0.348,-0.207Z" style="fill:white;fill-rule:nonzero;"/>
            </g>
            <g transform="matrix(57.0947,0,0,-2.19656,434.842,1.40354)">
                <path d="M0.061,0.428C0.023,0.428 0.017,0.411 0.017,0.379C0.02,0.246 0.02,0.113 0.022,-0.019C0.023,-0.083 0.023,-0.083 0.091,-0.082C0.254,-0.08 0.416,-0.078 0.579,-0.076C0.603,-0.076 0.628,-0.074 0.651,-0.077C0.691,-0.083 0.72,-0.112 0.723,-0.144C0.725,-0.177 0.702,-0.205 0.657,-0.213C0.625,-0.219 0.592,-0.219 0.56,-0.22C0.376,-0.222 0.192,-0.224 0.002,-0.226C0.001,-0.281 0.004,-0.332 0,-0.383C-0.003,-0.428 0.014,-0.437 0.056,-0.436C0.251,-0.432 0.446,-0.431 0.641,-0.427C0.692,-0.426 0.744,-0.42 0.794,-0.411C0.934,-0.385 0.989,-0.322 0.998,-0.179C1.013,0.046 0.93,0.133 0.703,0.132C0.584,0.132 0.465,0.131 0.345,0.13C0.329,0.129 0.313,0.129 0.297,0.13C0.276,0.13 0.269,0.142 0.269,0.161C0.268,0.181 0.275,0.192 0.296,0.193C0.315,0.193 0.333,0.193 0.352,0.194C0.539,0.196 0.726,0.2 0.913,0.2C0.95,0.201 0.968,0.208 0.965,0.25C0.961,0.309 0.962,0.369 0.962,0.438C0.656,0.435 0.359,0.431 0.061,0.428Z" style="fill:white;fill-rule:nonzero;"/>
            </g>
            <g transform="matrix(64.9129,0,0,-2.49735,7.77473,1.43971)">
                <path d="M0,0.369C0,0.123 0.001,-0.125 0.001,-0.361C0.089,-0.366 0.174,-0.371 0.267,-0.376C0.271,-0.25 0.275,-0.127 0.278,-0.005C0.295,-0.007 0.307,-0.024 0.321,-0.036C0.436,-0.14 0.551,-0.244 0.666,-0.347C0.68,-0.36 0.691,-0.377 0.713,-0.378C0.804,-0.378 0.896,-0.378 1,-0.379C0.909,-0.282 0.807,-0.219 0.731,-0.132C0.736,-0.125 0.737,-0.122 0.739,-0.121C0.748,-0.117 0.756,-0.113 0.765,-0.11C0.844,-0.09 0.885,-0.037 0.898,0.041C0.908,0.102 0.908,0.164 0.896,0.226C0.88,0.302 0.834,0.347 0.759,0.364C0.715,0.375 0.67,0.377 0.624,0.377C0.438,0.377 0.252,0.378 0.066,0.377C0.056,0.377 0.046,0.379 0.036,0.379C0.024,0.379 0.012,0.377 0,0.369ZM0.263,0.087C0.259,0.158 0.259,0.16 0.327,0.16C0.418,0.16 0.508,0.16 0.598,0.159C0.625,0.159 0.65,0.151 0.659,0.12C0.664,0.101 0.66,0.083 0.645,0.067C0.628,0.054 0.607,0.049 0.585,0.049C0.491,0.049 0.396,0.051 0.301,0.05L0.3,0.05C0.273,0.05 0.265,0.061 0.263,0.087Z" style="fill:white;fill-rule:nonzero;"/>
            </g>
            <g transform="matrix(57.7512,0,0,-2.22182,188.901,1.43813)">
                <path d="M0.95,0.426C0.89,0.423 0.83,0.424 0.77,0.424C0.741,0.425 0.713,0.425 0.685,0.425C0.641,0.425 0.597,0.425 0.554,0.425C0.45,0.426 0.346,0.426 0.243,0.422C0.076,0.416 0.001,0.334 0.001,0.167C-0,0.054 -0.001,-0.059 0.001,-0.171C0.004,-0.338 0.079,-0.414 0.247,-0.425C0.26,-0.425 0.274,-0.426 0.287,-0.426C0.44,-0.426 0.593,-0.426 0.745,-0.426C0.828,-0.426 0.91,-0.424 0.995,-0.423C1.003,-0.344 0.999,-0.269 0.998,-0.192C0.947,-0.184 0.896,-0.185 0.846,-0.186C0.827,-0.186 0.808,-0.186 0.788,-0.186C0.71,-0.186 0.631,-0.186 0.553,-0.186C0.479,-0.186 0.405,-0.186 0.33,-0.185C0.266,-0.184 0.262,-0.179 0.261,-0.116C0.26,-0.055 0.26,0.007 0.261,0.069C0.262,0.186 0.252,0.182 0.376,0.182C0.566,0.182 0.756,0.183 0.946,0.182C0.983,0.182 1.001,0.19 0.999,0.23C0.997,0.278 0.997,0.327 0.999,0.375C1.001,0.41 0.992,0.426 0.955,0.426C0.953,0.426 0.952,0.426 0.95,0.426Z" style="fill:white;fill-rule:nonzero;"/>
            </g>
            <g transform="matrix(57.7681,0,0,-2.22247,115.105,1.44551)">
                <path d="M0.248,0.425C0.074,0.419 0.003,0.34 0.001,0.167C0.001,0.067 0.005,-0.032 0.001,-0.13C-0.009,-0.351 0.099,-0.423 0.29,-0.423C0.506,-0.422 0.723,-0.423 0.94,-0.423C0.958,-0.423 0.977,-0.426 0.997,-0.412C0.998,-0.35 0.997,-0.286 1,-0.222C1.001,-0.19 0.987,-0.181 0.957,-0.182C0.907,-0.183 0.857,-0.183 0.806,-0.183L0.749,-0.183C0.609,-0.183 0.47,-0.184 0.331,-0.183C0.272,-0.182 0.262,-0.175 0.261,-0.13C0.259,-0.041 0.262,0.047 0.262,0.135C0.262,0.17 0.278,0.184 0.31,0.185C0.326,0.185 0.342,0.185 0.358,0.185C0.556,0.185 0.755,0.186 0.952,0.185C0.986,0.185 1.001,0.193 1,0.229C0.997,0.293 0.998,0.357 0.998,0.424C0.921,0.425 0.85,0.427 0.778,0.427C0.677,0.427 0.577,0.429 0.476,0.429C0.4,0.429 0.324,0.428 0.248,0.425Z" style="fill:white;fill-rule:nonzero;"/>
            </g>
            <g transform="matrix(17.157,0,0,-0.66007,81.9079,1.44742)">
                <path d="M0,1.279C0.005,0.964 0.003,0.648 0.003,0.333C0.004,-0.244 0.005,-0.819 0.007,-1.407C0.342,-1.432 0.663,-1.419 1,-1.411C0.999,-0.459 0.999,0.476 0.997,1.412C0.69,1.422 0.42,1.429 0.151,1.442C0.145,1.442 0.141,1.442 0.135,1.442C0.026,1.442 -0.002,1.386 0,1.279Z" style="fill:white;fill-rule:nonzero;"/>
            </g>
        </g>
    </g>
</svg>
