<?xml version="1.0" encoding="utf-8"?>
<!-- Generator: Adobe Illustrator 16.0.0, SVG Export Plug-In . SVG Version: 6.00 Build 0)  -->
<!DOCTYPE svg PUBLIC "-//W3C//DTD SVG 1.1//EN" "http://www.w3.org/Graphics/SVG/1.1/DTD/svg11.dtd">
<svg version="1.1" id="Layer_1" xmlns="http://www.w3.org/2000/svg" xmlns:xlink="http://www.w3.org/1999/xlink" x="0px" y="0px"
	 width="1180.641px" height="422.293px" viewBox="0 0 1180.641 422.293" enable-background="new 0 0 1180.641 422.293"
	 xml:space="preserve">
<g>
	<g>
		<path fill="#FFFFFF" d="M738.82,12.551c-40.38,11.43-79.24,27.42-118.22,42.81c-43.02,17.2-86.23,34.08-130.62,47.46
			c-44.24,13.18-89.6,23.14-135.67,26.99c-55.64,4.92-112.07,0.74-166.39-12.3c-42.39-10.06-83.43-25.37-122.58-44.39
			C43,62.121,21,50.321,0,36.921c0.1,0.28,0.29,0.82,0.39,1.1c18.41,15.62,36.4,31.75,55.04,47.12
			c53.86,44.83,112.15,85.3,176.71,113.16c40.26,17.36,82.91,29.64,126.6,34.16c45.58,4.78,92.07,1.03,136.2-11.4
			c40.05-11.16,78.12-28.92,113.15-51.21c20.59-13.02,40.229-27.52,58.979-43.08c26.83-22.63,54.021-44.92,82.78-65.08
			c32.73-23.01,67.7-43.07,104.97-57.78c-2.87-1.28-6.07-1.41-9.11-1.97C809.84-3.349,773.41,2.831,738.82,12.551z M111.5,145.561
			c1.59,3.07,3.79,5.74,5.77,8.56c19.78,27.54,41.69,53.46,64.36,78.65c14.91,14.52,30.63,28.27,47.42,40.6l0.53,0.1
			c3.08,3.17,7.04,5.29,10.57,7.9c30.63,20.92,65.02,37.3,101.81,43.48c25.09,4.32,51.03,3.62,75.84-2.09
			c19.97-4.56,39.15-12.28,57.03-22.24c30.79-17.16,57.69-40.68,80.77-67.2c7.23-8.57,14.48-17.22,20.51-26.68
			c-13.35,7.02-26.86,13.76-40.75,19.65c-40.32,17.38-83.46,28.8-127.4,31.18c-45.32,2.64-90.92-4.64-133.8-19.3
			C214.68,217.861,160.81,184.051,111.5,145.561z M739.66,196.391c-6.49,3.78-10.95,10.25-13.74,17.1
			c-25.86,58.51-51.83,116.97-77.67,175.48c-4.25,8.58-1.91,19.63,5.11,26.04c8.69,8.42,23.84,7.85,32.33-0.57
			c5.19-4.82,7.11-11.85,9.95-18.11c3.8-9.04,7.78-18.02,11.45-27.12c32.7-0.22,65.4,0,98.1-0.11
			c5.16,11.85,10.13,23.78,15.27,35.63c2.54,5.81,6.74,11.13,12.53,13.95c6.95,3.31,15.5,3.2,22.28-0.5
			c7.89-4.35,12.73-13.48,12-22.44c-0.57-5.12-3.13-9.67-5.12-14.32c-25.18-56.86-50.37-113.71-75.57-170.56
			c-3.86-8.61-11.37-15.92-20.78-17.89C757.07,191.351,747.43,191.661,739.66,196.391z M1076.47,193.411
			c-13.85,1.83-27.54,6.59-38.77,15.06c-11.72,8.72-20.29,21.66-23.39,35.97c-2.5,11.55-2.26,23.68,0.51,35.16
			c2.76,11.55,9.9,21.88,19.6,28.72c9.55,6.92,20.68,11.23,31.84,14.81c16.46,5.38,33.74,8.21,49.71,15.07
			c5.45,2.45,11.28,5.53,14.03,11.14c3.25,7.25,1.68,16.74-4.6,21.9c-7.59,6.32-17.99,7.54-27.53,7.4
			c-19.99-0.12-39.23-8.07-55.11-19.89c-9-6.82-22.9-6.11-30.86,2.02c-7.59,7.35-8.65,19.98-2.95,28.76
			c2.79,4.84,7.85,7.53,12.35,10.53c27.84,17.62,61.92,25.35,94.62,21.08c17.45-2.37,35.05-9.05,47.36-22.05
			c10.38-10.42,16.01-24.91,17.061-39.44c1.13-13.97-0.74-28.86-8.811-40.66c-8.2-12.19-21.47-19.71-34.79-25.12
			c-18.8-7.78-39.17-10.6-58.11-17.94c-5.3-2.27-11.01-4.75-14.3-9.73c-4.29-6.95-3.61-17.02,2.53-22.7
			c5.62-5.26,13.54-6.99,21.021-7.36c17.6-0.65,34.45,6.28,49.35,15.1c10.82,6.82,26.84,2.94,32.75-8.58
			c5.17-9.47,2.67-22.54-6.13-28.99C1138.49,196.541,1106.71,189.921,1076.47,193.411z M930.33,194.271
			c-9.74,1.91-17.79,10.4-19.08,20.25c-0.69,5.33-0.31,10.71-0.4,16.07c-0.01,53.67,0.02,107.33-0.01,161
			c-0.25,6.7,0.55,13.82,4.729,19.34c7.2,10.39,22.67,13.22,33.25,6.43c7.13-4.3,11.59-12.5,11.53-20.81
			c-0.01-59.64,0.02-119.29-0.01-178.94c-0.13-8.54-5.061-16.82-12.62-20.83C942.48,193.791,936.18,193.221,930.33,194.271z"/>
	</g>
	<path fill="#FFFFFF" d="M751.92,262.561c1.43-3.36,2.71-6.79,4.43-10.03c10.05,24.31,20.33,48.53,30.51,72.79
		c-20.42,0.1-40.84,0.03-61.25,0.04C734.26,304.381,743.17,283.501,751.92,262.561z"/>
</g>
<g>
	<path fill="#8EB533" d="M738.82,12.551c34.59-9.72,71.021-15.9,106.89-10.61c3.04,0.56,6.24,0.69,9.11,1.97
		c-37.27,14.71-72.24,34.77-104.97,57.78c-28.76,20.16-55.95,42.45-82.78,65.08c-18.75,15.56-38.39,30.06-58.979,43.08
		c-3.71,1.41-6.01-2.18-9-3.53c-3.21-1.69-5.69-4.5-9.04-5.95c-4.05-1.73-7.59-4.37-11.5-6.34c-6.04-2.77-11.24-6.96-17.1-10.05
		c-3.7-2.86-8.64-3.68-11.93-7.1c-2.1-2.52-5.98-1.4-8.33-3.61c-5.49-4.37-11.57-7.95-17.87-11.02c-4.87-2.79-9.53-5.93-14.56-8.43
		c-5.04-2.51-9.55-5.95-14.65-8.34c-1.49-0.7-2.85-1.64-4.13-2.66c44.39-13.38,87.6-30.26,130.62-47.46
		C659.58,39.971,698.44,23.981,738.82,12.551z"/>
	<path fill="#8EB533" d="M111.5,145.561c49.31,38.49,103.18,72.3,162.66,92.61c-0.67,1.3-1.3,2.62-1.95,3.92
		c-1.08,0.09-2.26-0.06-3.17,0.63c-6.26,5.43-12.33,11.15-18.95,16.14c-5.11,2.4-7.81,7.61-12.33,10.78
		c0.64,0.61,1.29,1.22,1.94,1.84c-1.6-0.24-3.2-0.48-4.8-0.73c0.72,1.43,4.11,3.14,2.22,4.57c-2.55-0.48-4.97-1.49-7.54-1.85
		l-0.53-0.1c-16.79-12.33-32.51-26.08-47.42-40.6c-22.67-25.19-44.58-51.11-64.36-78.65
		C115.29,151.301,113.09,148.631,111.5,145.561z"/>
</g>
<g>
	<path fill="#C2D530" d="M0.39,38.021c-0.1-0.28-0.29-0.82-0.39-1.1c21,13.4,43,25.2,65.34,36.2
		c39.15,19.02,80.19,34.33,122.58,44.39c54.32,13.04,110.75,17.22,166.39,12.3c46.07-3.85,91.43-13.81,135.67-26.99
		c1.28,1.02,2.64,1.96,4.13,2.66c5.1,2.39,9.61,5.83,14.65,8.34c5.03,2.5,9.69,5.64,14.56,8.43c6.3,3.07,12.38,6.65,17.87,11.02
		c2.35,2.21,6.23,1.09,8.33,3.61c3.29,3.42,8.23,4.24,11.93,7.1c5.86,3.09,11.06,7.28,17.1,10.05c3.91,1.97,7.45,4.61,11.5,6.34
		c3.35,1.45,5.83,4.26,9.04,5.95c2.99,1.35,5.29,4.94,9,3.53c-35.03,22.29-73.1,40.05-113.15,51.21
		c-44.13,12.43-90.62,16.18-136.2,11.4c-43.69-4.52-86.34-16.8-126.6-34.16c-64.56-27.86-122.85-68.33-176.71-113.16
		C36.79,69.771,18.8,53.641,0.39,38.021z"/>
	<path fill="#C2D530" d="M535.36,226.291c13.89-5.89,27.4-12.63,40.75-19.65c-6.03,9.46-13.28,18.11-20.51,26.68
		c-23.08,26.52-49.98,50.04-80.77,67.2c-17.88,9.96-37.06,17.68-57.03,22.24c-24.81,5.71-50.75,6.41-75.84,2.09
		c-36.79-6.18-71.18-22.56-101.81-43.48c-3.53-2.61-7.49-4.73-10.57-7.9c2.57,0.36,4.99,1.37,7.54,1.85
		c1.89-1.43-1.5-3.14-2.22-4.57c1.6,0.25,3.2,0.49,4.8,0.73c-0.65-0.62-1.3-1.23-1.94-1.84c4.52-3.17,7.22-8.38,12.33-10.78
		c6.62-4.99,12.69-10.71,18.95-16.14c0.91-0.69,2.09-0.54,3.17-0.63c0.65-1.3,1.28-2.62,1.95-3.92
		c42.88,14.66,88.48,21.94,133.8,19.3C451.9,255.091,495.04,243.671,535.36,226.291z"/>
</g>
<g>
	<g>
		<path fill="#463838" d="M739.66,196.391c7.77-4.73,17.41-5.04,26.14-3.42c9.41,1.97,16.92,9.28,20.78,17.89
			c25.2,56.85,50.39,113.7,75.57,170.56c1.99,4.65,4.55,9.2,5.12,14.32c0.73,8.96-4.11,18.09-12,22.44
			c-6.78,3.7-15.33,3.81-22.28,0.5c-5.79-2.82-9.99-8.14-12.53-13.95c-5.14-11.85-10.11-23.78-15.27-35.63
			c-32.7,0.11-65.4-0.11-98.1,0.11c-3.67,9.1-7.65,18.08-11.45,27.12c-2.84,6.26-4.76,13.29-9.95,18.11
			c-8.49,8.42-23.64,8.99-32.33,0.57c-7.02-6.41-9.36-17.46-5.11-26.04c25.84-58.51,51.81-116.97,77.67-175.48
			C728.71,206.641,733.17,200.171,739.66,196.391z M751.92,262.561c-8.75,20.94-17.66,41.82-26.31,62.8
			c20.41-0.01,40.83,0.06,61.25-0.04c-10.18-24.26-20.46-48.48-30.51-72.79C754.63,255.771,753.35,259.201,751.92,262.561z"/>
	</g>
	<path fill="#463838" d="M1076.47,193.411c30.24-3.49,62.02,3.13,87.38,20.26c8.8,6.45,11.3,19.52,6.13,28.99
		c-5.91,11.52-21.93,15.4-32.75,8.58c-14.9-8.82-31.75-15.75-49.35-15.1c-7.48,0.37-15.4,2.1-21.021,7.36
		c-6.14,5.68-6.82,15.75-2.53,22.7c3.29,4.98,9,7.46,14.3,9.73c18.939,7.34,39.31,10.16,58.11,17.94
		c13.32,5.41,26.59,12.93,34.79,25.12c8.07,11.8,9.94,26.69,8.811,40.66c-1.05,14.53-6.68,29.02-17.061,39.44
		c-12.31,13-29.91,19.68-47.36,22.05c-32.7,4.27-66.78-3.46-94.62-21.08c-4.5-3-9.56-5.69-12.35-10.53
		c-5.7-8.78-4.64-21.41,2.95-28.76c7.96-8.13,21.86-8.84,30.86-2.02c15.88,11.82,35.12,19.77,55.11,19.89
		c9.54,0.14,19.94-1.08,27.53-7.4c6.28-5.16,7.85-14.65,4.6-21.9c-2.75-5.61-8.58-8.69-14.03-11.14
		c-15.97-6.86-33.25-9.69-49.71-15.07c-11.16-3.58-22.29-7.89-31.84-14.81c-9.7-6.84-16.84-17.17-19.6-28.72
		c-2.77-11.48-3.01-23.61-0.51-35.16c3.1-14.31,11.67-27.25,23.39-35.97C1048.93,200.001,1062.62,195.241,1076.47,193.411z"/>
	<path fill="#463838" d="M930.33,194.271c5.85-1.05,12.15-0.48,17.39,2.51c7.56,4.01,12.49,12.29,12.62,20.83
		c0.03,59.65,0,119.3,0.01,178.94c0.06,8.31-4.4,16.51-11.53,20.81c-10.58,6.79-26.05,3.96-33.25-6.43
		c-4.18-5.52-4.979-12.64-4.729-19.34c0.03-53.67,0-107.33,0.01-161c0.09-5.36-0.29-10.74,0.4-16.07
		C912.54,204.671,920.59,196.181,930.33,194.271z"/>
</g>
</svg>
